<svg width="22" height="19" viewBox="0 0 22 19" fill="none" xmlns="http://www.w3.org/2000/svg">
<path d="M7.3 15.7C7.3 16.9703 6.27026 18 5 18C3.72975 18 2.7 16.9703 2.7 15.7C2.7 14.4297 3.72975 13.4 5 13.4C6.27026 13.4 7.3 14.4297 7.3 15.7ZM7.3 15.7H13.6M21 11.5C20.8 8.1 17.7 5.5 17.6 5.2L17.1 1.6C16.9 1.3 16.6 1 16.2 1H13.2H14.2V10.2C14.2 11.1 13.5 11.8 12.6 11.8H11.5C11.3 11.8 11.1 11.8 10.9 11.7C10 11.4 9.5 10.5 9.5 9.6V7.9H1M2.5 15.6C1.5 15.3 0.9 14.3 1.1 13.2L2.2 8M20.8 15.7C20.8 16.9703 19.7703 18 18.5 18C17.2297 18 16.2 16.9703 16.2 15.7C16.2 14.4297 17.2297 13.4 18.5 13.4C19.7703 13.4 20.8 14.4297 20.8 15.7ZM6.1 3.1H4C3.4 3.1 3 3.6 3 4.1V7.9H7.1V4.1C7.1 3.6 6.6 3.1 6.1 3.1Z" stroke="#6E6E6E" stroke-width="1.5" stroke-miterlimit="10" stroke-linecap="round" stroke-linejoin="round"/>
</svg>
